HIERARCHY
ROOT Hips
{
 OFFSET 0.000000 0.000000 0.000000
 CHANNELS 6 Xposition Yposition Zposition Yrotation Xrotation Zrotation
 JOINT Chest
 {
  OFFSET 0.000000 9.588913 -0.003946
  CHANNELS 3 Yrotation Xrotation Zrotation
  JOINT Chest2
  {
   OFFSET 0.000000 9.541882 0.008053
   CHANNELS 3 Yrotation Xrotation Zrotation
   JOINT Chest3
   {
    OFFSET 0.000000 9.501360 0.000000
    CHANNELS 3 Yrotation Xrotation Zrotation
    JOINT Chest4
    {
     OFFSET 0.000000 9.491660 0.000000
     CHANNELS 3 Yrotation Xrotation Zrotation
     JOINT Neck
     {
      OFFSET 0.000000 14.331917 0.000000
      CHANNELS 3 Yrotation Xrotation Zrotation
      JOINT Head
      {
       OFFSET 0.000000 8.884799 0.017034
       CHANNELS 3 Yrotation Xrotation Zrotation
       End Site
       {
        OFFSET 0.000000 16.896195 0.008993
       }
      }
     }
     JOINT RightCollar
     {
      OFFSET -2.923010 9.499495 0.000000
      CHANNELS 3 Yrotation Xrotation Zrotation
      JOINT RightShoulder
      {
       OFFSET -13.795216 0.000000 0.000000
       CHANNELS 3 Yrotation Xrotation Zrotation
       JOINT RightElbow
       {
        OFFSET -30.272209 0.000000 0.000000
        CHANNELS 3 Yrotation Xrotation Zrotation
        JOINT RightWrist
        {
         OFFSET -24.478199 0.000000 0.000000
         CHANNELS 3 Yrotation Xrotation Zrotation
         End Site
         {
          OFFSET -18.090752 0.000000 0.000000
         }
        }
       }
      }
     }
     JOINT LeftCollar
     {
      OFFSET 2.923010 9.499495 0.000000
      CHANNELS 3 Yrotation Xrotation Zrotation
      JOINT LeftShoulder
      {
       OFFSET 13.795216 0.000000 0.000000
       CHANNELS 3 Yrotation Xrotation Zrotation
       JOINT LeftElbow
       {
        OFFSET 30.272209 0.000000 0.000000
        CHANNELS 3 Yrotation Xrotation Zrotation
        JOINT LeftWrist
        {
         OFFSET 24.478199 0.000000 0.000000
         CHANNELS 3 Yrotation Xrotation Zrotation
         End Site
         {
          OFFSET 18.090752 0.000000 0.000000
         }
        }
       }
      }
     }
    }
   }
  }
 }
 JOINT RightHip
 {
  OFFSET -7.826875 0.019532 0.001973
  CHANNELS 3 Yrotation Xrotation Zrotation
  JOINT RightKnee
  {
   OFFSET 0.000000 -40.546152 -0.001885
   CHANNELS 3 Yrotation Xrotation Zrotation
   JOINT RightAnkle
   {
    OFFSET 0.000000 -39.417092 -0.003189
    CHANNELS 3 Yrotation Xrotation Zrotation
    JOINT RightToe
    {
     OFFSET 0.000000 -7.579396 17.243563
     CHANNELS 3 Yrotation Xrotation Zrotation
     End Site
     {
      OFFSET 0.000000 -1.500329 6.694466
     }
    }
   }
  }
 }
 JOINT LeftHip
 {
  OFFSET 7.826875 0.019532 0.001973
  CHANNELS 3 Yrotation Xrotation Zrotation
  JOINT LeftKnee
  {
   OFFSET 0.000000 -40.546152 -0.001885
   CHANNELS 3 Yrotation Xrotation Zrotation
   JOINT LeftAnkle
   {
    OFFSET 0.000000 -39.417092 -0.003189
    CHANNELS 3 Yrotation Xrotation Zrotation
    JOINT LeftToe
    {
     OFFSET 0.000000 -7.579396 17.243563
     CHANNELS 3 Yrotation Xrotation Zrotation
     End Site
     {
      OFFSET 0.000000 -1.500329 6.694466
     }
    }
   }
  }
 }
}
MOTION
Frames: 14
Frame Time: 0.008333
0.000000 87.345680 0.000000 0.000000 -5.767889 0.000000 0.000000 11.653876 0.000000 0.000000 -5.885988 0.000000 0.000000 -0.000000 0.000000 0.000000 -0.000000 0.000000 0.000000 12.528808 0.000000 0.000000 0.711711 0.000000 0.000000 -0.000000 0.000000 0.000000 -0.000000 0.000000 2.309063 -0.000000 0.000000 -2.309063 -0.000000 -0.000000 0.000000 -0.000000 0.000000 0.000000 0.000000 0.000000 -2.309063 0.000000 0.000000 2.309063 -0.000000 0.000000 0.000000 8.520374 0.000000 0.000000 1.905768 0.000000 -0.000000 -4.658254 0.000000 0.000000 -0.000000 0.000000 0.000000 8.520374 0.000000 0.000000 1.905768 0.000000 -0.000000 -4.658254 0.000000 0.000000 -0.000000 0.000000
-3.923193 89.262029 9.601577 -50.176206 -4.220484 -0.766164 -0.394610 2.544351 0.353731 -0.225875 1.454466 0.192722 -0.281602 1.818199 0.240026 -0.225875 1.454466 0.192722 -12.391516 20.078090 2.195406 -23.187570 2.776071 7.541617 -0.366018 -3.066837 -4.100482 -1.667727 3.667024 92.329944 6.568741 14.908235 1.618371 -2.917690 -0.445720 -1.473550 0.978197 -1.675541 0.285455 7.873391 1.908797 -86.954336 -4.226229 9.886329 -0.039620 0.687973 -3.524141 2.586996 4.993556 6.080474 3.173936 -3.198334 2.006664 -0.845711 -8.637006 -3.195691 -0.967866 -0.013107 0.028552 -0.006336 4.091416 7.506610 -0.730134 1.844802 0.346004 0.149476 3.546779 -3.824473 1.523670 0.009265 -0.044713 0.002434
-3.925424 89.261879 9.597237 -50.184826 -4.213891 -0.766492 -0.392979 2.543899 0.353442 -0.225261 1.454504 0.191830 -0.280838 1.818246 0.238913 -0.225261 1.454504 0.191830 -12.386073 20.080922 2.197895 -23.178054 2.780874 7.544147 -0.366427 -3.064099 -4.090356 -1.669230 3.663451 92.328744 6.571186 14.910433 1.619903 -2.905406 -0.451526 -1.483907 0.984519 -1.677613 0.287443 7.862911 1.892812 -86.967763 -4.211315 9.868338 -0.036048 0.685153 -3.525644 2.580592 5.004582 6.075582 3.171620 -3.198576 2.001147 -0.845385 -8.605116 -3.193472 -0.967952 -0.010297 0.029711 -0.005886 4.088724 7.498215 -0.726352 1.850266 0.350183 0.150578 3.544310 -3.825151 1.517441 0.009079 -0.041617 0.003377
-3.928405 89.261650 9.592433 -50.193003 -4.209285 -0.766348 -0.391659 2.544436 0.353380 -0.224825 1.454778 0.191215 -0.280294 1.818588 0.238145 -0.224825 1.454778 0.191215 -12.381433 20.083285 2.198636 -23.169557 2.784586 7.543829 -0.365269 -3.061898 -4.082665 -1.672529 3.661068 92.329284 6.576325 14.903522 1.622687 -2.895028 -0.457255 -1.496339 0.992016 -1.681312 0.285798 7.844195 1.874935 -86.979224 -4.193583 9.847930 -0.030323 0.687842 -3.524724 2.569283 5.018684 6.071794 3.174388 -3.199053 1.995773 -0.846870 -8.597101 -3.191318 -0.970261 -0.009446 0.030405 -0.005140 4.087585 7.491940 -0.723923 1.858087 0.354303 0.150960 3.548682 -3.826047 1.513097 0.009814 -0.039315 0.003672
-3.931792 89.261326 9.587458 -50.198086 -4.206547 -0.764444 -0.391282 2.546225 0.351699 -0.224815 1.455526 0.190146 -0.280286 1.819522 0.236809 -0.224815 1.455526 0.190146 -12.377991 20.085263 2.199425 -23.163295 2.787801 7.543984 -0.365760 -3.060199 -4.073198 -1.674444 3.657612 92.330633 6.580783 14.889644 1.623901 -2.887159 -0.461416 -1.505831 0.997528 -1.685813 0.285167 7.821196 1.854395 -86.989409 -4.173366 9.825785 -0.025057 0.694568 -3.523013 2.556793 5.028482 6.069216 3.179489 -3.200264 1.991441 -0.848343 -8.610113 -3.191045 -0.975918 -0.010683 0.031462 -0.004220 4.085076 7.486453 -0.725426 1.865334 0.360363 0.153520 3.559813 -3.827152 1.508463 0.011160 -0.038019 0.003944
-3.935231 89.260902 9.582246 -50.198538 -4.204223 -0.761256 -0.392606 2.547936 0.347902 -0.225573 1.456226 0.188753 -0.281239 1.820398 0.235064 -0.225573 1.456226 0.188753 -12.376382 20.087204 2.200497 -23.160444 2.791315 7.545136 -0.365833 -3.057661 -4.061560 -1.676809 3.652879 92.329839 6.580749 14.876300 1.625556 -2.880333 -0.465638 -1.509650 0.999342 -1.689388 0.287313 7.799032 1.834115 -87.000622 -4.152904 9.802450 -0.017743 0.703603 -3.521643 2.544150 5.031892 6.068290 3.188204 -3.201051 1.983767 -0.849814 -8.648763 -3.190591 -0.985162 -0.014009 0.032887 -0.004006 4.079463 7.479807 -0.729122 1.871668 0.369003 0.159468 3.567229 -3.828705 1.501431 0.012230 -0.037054 0.004291
-3.938767 89.260396 9.576244 -50.195092 -4.200907 -0.760850 -0.395218 2.548444 0.345212 -0.227095 1.456416 0.188051 -0.283144 1.820635 0.234181 -0.227095 1.456416 0.188051 -12.376510 20.089066 2.200838 -23.160546 2.794823 7.545445 -0.365650 -3.053142 -4.049983 -1.676532 3.645437 92.325619 6.573998 14.866531 1.627488 -2.872957 -0.471257 -1.510158 1.001154 -1.691140 0.289298 7.774547 1.815846 -87.015602 -4.133308 9.776068 -0.005578 0.710352 -3.521093 2.532010 5.032348 6.068624 3.197615 -3.197722 1.971900 -0.850712 -8.681175 -3.187249 -0.994370 -0.015963 0.033492 -0.003635 4.071502 7.470111 -0.729509 1.878451 0.380582 0.166647 3.568385 -3.832121 1.493409 0.012462 -0.035161 0.004101
-3.942392 89.259860 9.569508 -50.188379 -4.197231 -0.764051 -0.398460 2.548501 0.344531 -0.229091 1.456602 0.188301 -0.285639 1.820868 0.234484 -0.229091 1.456602 0.188301 -12.377445 20.090328 2.200641 -23.162034 2.797253 7.545106 -0.367809 -3.048837 -4.040434 -1.670809 3.635690 92.323154 6.561147 14.859336 1.626150 -2.866871 -0.476181 -1.512026 1.003108 -1.691443 0.290427 7.748340 1.797549 -87.036465 -4.113751 9.747680 0.009621 0.710286 -3.522460 2.525215 5.032342 6.069069 3.204911 -3.191111 1.960720 -0.851490 -8.687028 -3.183211 -1.001737 -0.015322 0.033411 -0.001672 4.061536 7.458732 -0.724055 1.883661 0.393909 0.172224 3.563540 -3.837684 1.486216 0.011430 -0.031892 0.002953
-3.945929 89.259357 9.562766 -50.181439 -4.195475 -0.767514 -0.401513 2.549459 0.344169 -0.231049 1.457457 0.188499 -0.288085 1.821939 0.234724 -0.231049 1.457457 0.188499 -12.378068 20.090997 2.200654 -23.163087 2.798587 7.545172 -0.370507 -3.046190 -4.031742 -1.663186 3.625454 92.325399 6.545706 14.855756 1.620193 -2.863878 -0.482233 -1.514834 1.003435 -1.692253 0.291350 7.728302 1.779615 -87.061247 -4.095944 9.722021 0.025074 0.705501 -3.526950 2.525266 5.034753 6.069857 3.209628 -3.185392 1.953775 -0.852853 -8.675874 -3.181385 -1.007774 -0.013687 0.033453 0.001355 4.052624 7.449641 -0.717179 1.882548 0.406681 0.177446 3.559207 -3.843673 1.480045 0.009981 -0.028488 0.000894
-3.949190 89.258928 9.556361 -50.174253 -4.196130 -0.769535 -0.404435 2.551741 0.343974 -0.233114 1.458997 0.187948 -0.290668 1.823864 0.234027 -0.233114 1.458997 0.187948 -12.377683 20.091486 2.200984 -23.162421 2.799487 7.545575 -0.372241 -3.045727 -4.022331 -1.657814 3.616983 92.328356 6.530941 14.857120 1.611126 -2.862804 -0.489648 -1.516037 1.003332 -1.694885 0.291608 7.713874 1.762654 -87.084361 -4.081255 9.698033 0.036798 0.697911 -3.533493 2.528405 5.038519 6.071248 3.210745 -3.183530 1.951513 -0.854179 -8.652655 -3.182138 -1.011665 -0.011407 0.033562 0.003906 4.045258 7.442115 -0.714887 1.876201 0.420771 0.184967 3.568443 -3.849637 1.474344 0.010051 -0.026304 -0.000705
-3.951960 89.258584 9.550197 -50.165397 -4.197581 -0.770190 -0.407805 2.554454 0.343403 -0.235339 1.460639 0.187414 -0.293450 1.825918 0.233349 -0.235339 1.460639 0.187414 -12.376435 20.092284 2.200910 -23.160039 2.800727 7.544969 -0.372909 -3.047569 -4.014448 -1.655998 3.611131 92.329419 6.516828 14.862527 1.603297 -2.864102 -0.491997 -1.515484 1.002165 -1.698317 0.290827 7.700047 1.743719 -87.104915 -4.066432 9.670797 0.043360 0.690744 -3.538895 2.532015 5.041626 6.070476 3.212165 -3.186548 1.954063 -0.852895 -8.645346 -3.185433 -1.016250 -0.010564 0.033294 0.004251 4.037259 7.433861 -0.715539 1.869853 0.437202 0.194136 3.579834 -3.855446 1.467482 0.010699 -0.025210 -0.001160
-3.954298 89.258337 9.544108 -50.156098 -4.199006 -0.770543 -0.411575 2.556919 0.342422 -0.237457 1.462050 0.187514 -0.296098 1.827683 0.233464 -0.237457 1.462050 0.187514 -12.373929 20.093543 2.200306 -23.155170 2.802491 7.542996 -0.372023 -3.048746 -4.008715 -1.655442 3.604080 92.329889 6.502073 14.869371 1.597375 -2.868986 -0.491100 -1.514269 0.999142 -1.700722 0.288698 7.685347 1.720010 -87.123883 -4.048290 9.641120 0.046748 0.688372 -3.542152 2.534775 5.044294 6.066781 3.215556 -3.192409 1.960643 -0.849059 -8.659521 -3.190602 -1.021637 -0.011787 0.032584 0.002424 4.029043 7.426318 -0.715455 1.864764 0.451683 0.202328 3.586613 -3.859404 1.459760 0.011007 -0.024587 -0.000637
-3.956297 89.258192 9.538073 -50.147017 -4.200191 -0.770993 -0.415097 2.559275 0.341782 -0.239307 1.463384 0.187680 -0.298408 1.829351 0.233664 -0.239307 1.463384 0.187680 -12.369640 20.095328 2.200286 -23.147165 2.805042 7.541509 -0.372206 -3.047730 -4.002786 -1.652765 3.593173 92.330891 6.486137 14.875222 1.591447 -2.873895 -0.490387 -1.515820 0.994962 -1.702507 0.286299 7.666006 1.693142 -87.140373 -4.026942 9.611533 0.049254 0.688019 -3.542703 2.535365 5.045642 6.063859 3.216840 -3.197536 1.965911 -0.846073 -8.666644 -3.194592 -1.023788 -0.012448 0.031796 0.000236 4.022238 7.420842 -0.714444 1.861637 0.461049 0.209394 3.589326 -3.859787 1.451412 0.011494 -0.024444 0.000826
-3.958029 89.258147 9.532298 -50.138402 -4.201689 -0.770742 -0.417495 2.562215 0.340655 -0.240462 1.464988 0.187491 -0.299853 1.831356 0.233422 -0.240462 1.464988 0.187491 -12.364093 20.097209 2.201580 -23.137240 2.807834 7.542036 -0.375653 -3.047588 -3.995971 -1.647620 3.582032 92.332189 6.470504 14.876767 1.586099 -2.873098 -0.486089 -1.521804 0.991022 -1.706099 0.284929 7.638482 1.666793 -87.155360 -4.003587 9.583203 0.054132 0.684269 -3.539607 2.532853 5.045105 6.063681 3.218057 -3.200112 1.966338 -0.844696 -8.677625 -3.195517 -1.025796 -0.012750 0.030896 -0.001042 4.017471 7.417148 -0.711680 1.859696 0.467845 0.215453 3.579814 -3.858077 1.443005 0.011334 -0.024518 0.001640
